<mxfile host="app.diagrams.net" modified="2023-07-27T08:52:24.682Z" agent="Mozilla/5.0 (Windows NT 10.0; Win64; x64) AppleWebKit/537.36 (KHTML, like Gecko) Chrome/115.0.0.0 Safari/537.36" version="21.1.2" etag="HcwL1nZiHoc90pxjs3bz" type="github">
  <diagram name="페이지-1" id="bU2NZTIaEhqbro70TaHq">
    <mxGraphModel>
      <root>
        <mxCell id="0" />
        <mxCell id="1" parent="0" />
      </root>
    </mxGraphModel>
  </diagram>
</mxfile>
